<svg xmlns="http://www.w3.org/2000/svg" xmlns:xlink="http://www.w3.org/1999/xlink" version="1.1" id="_x32_" width="800px" height="800px" viewBox="0 0 512 512" xml:space="preserve">
<style type="text/css">
<![CDATA[
	.st0{fill:#000000;}
]]>
</style>
<g>
	<path class="st0" d="M275.084,157.24c0.109,0.031,0.219,0.109,0.375,0.156l83.063-83.109c5.141-5.063,10.922-8.844,17.156-11.344   c9.328-3.781,19.641-4.797,29.438-2.844c9.859,1.906,19.094,6.563,26.75,14.188c5.125,5.141,8.875,10.953,11.422,17.188   c3.75,9.313,4.734,19.625,2.828,29.453c-1.922,9.813-6.578,19.078-14.25,26.75L315.74,263.803   c-5.125,5.125-10.938,8.875-17.125,11.422c-9.344,3.766-19.672,4.703-29.484,2.813c-9.828-1.922-19.078-6.578-26.734-14.234   c-4.156-4.172-7.391-8.75-9.813-13.672c-0.266-0.047-0.531-0.141-0.781-0.172c-5.719-1.078-11.828-0.469-17.172,1.75   c-3.734,1.547-7.063,3.781-9.984,6.719l-1.656,1.688c-8.688,10.531-15.5,25.406-1.828,44.984   c10.688,10.703,23.172,18.797,36.438,24.172c19.938,8.094,41.672,10.078,62.5,6.047c20.797-4,40.828-14.172,56.922-30.281   l116.109-116.109c10.703-10.703,18.828-23.172,24.203-36.453c8.078-19.953,10.094-41.672,6.078-62.5   c-4.031-20.797-14.203-40.844-30.281-56.922c-10.719-10.688-23.172-18.813-36.469-24.172c-19.938-8.109-41.672-10.094-62.5-6.078   c-20.797,4.016-40.828,14.172-56.891,30.25L201.131,149.209c-0.438,0.406-0.828,0.859-1.266,1.328   c0.141-0.047,0.328-0.094,0.469-0.094C225.443,145.412,251.287,147.756,275.084,157.24z"/>
	<path class="st0" d="M230.35,349.74c-0.125-0.078-0.25-0.109-0.391-0.172l-83.063,83.078c-5.141,5.125-10.922,8.891-17.156,11.375   c-9.328,3.797-19.641,4.797-29.453,2.875c-9.844-1.922-19.094-6.594-26.75-14.25c-5.125-5.109-8.875-10.922-11.406-17.141   c-3.75-9.297-4.75-19.656-2.828-29.438c1.922-9.844,6.594-19.094,14.234-26.734l116.141-116.172   c5.125-5.109,10.922-8.844,17.125-11.375c9.313-3.828,19.656-4.75,29.484-2.859c9.828,1.938,19.047,6.594,26.734,14.234   c4.156,4.141,7.391,8.781,9.813,13.703c0.266,0.047,0.531,0.109,0.781,0.172c5.703,1.047,11.844,0.438,17.156-1.766   c3.734-1.563,7.078-3.828,9.969-6.75l1.688-1.672c8.641-10.516,15.484-25.422,1.828-44.984   c-10.719-10.672-23.172-18.766-36.469-24.172c-19.922-8.063-41.641-10.063-62.469-6.063c-20.797,4.031-40.844,14.219-56.922,30.297   L32.271,318.053c-10.719,10.703-18.813,23.156-24.188,36.438c-8.109,20-10.094,41.688-6.078,62.516   c4.016,20.797,14.203,40.844,30.266,56.922C42.99,484.6,55.443,492.725,68.74,498.131c19.953,8.063,41.656,10.109,62.5,6.063   c20.797-4,40.844-14.188,56.891-30.266l116.156-116.172c0.406-0.406,0.813-0.875,1.25-1.266c-0.156,0-0.328,0.047-0.469,0.047   C279.959,361.537,254.131,359.225,230.35,349.74z"/>
	<path class="st0" d="M416.365,319.912c-52.797,0-95.609,42.844-95.609,95.625c0,52.813,42.813,95.672,95.609,95.672   c52.813,0,95.641-42.859,95.641-95.672C512.006,362.756,469.178,319.912,416.365,319.912z M464.99,430.131h-97.234v-29.156h97.234   V430.131z"/>
</g>
</svg>