<svg xmlns="http://www.w3.org/2000/svg" xmlns:xlink="http://www.w3.org/1999/xlink" height="800px" width="800px" version="1.1" id="_x32_" viewBox="0 0 512 512" xml:space="preserve">
<style type="text/css">
	.st0{fill:#ffffff;}
</style>
<g>
	<path class="st0" d="M366.042,378.266c-26.458-9.72-49.309-18.113-51.793-42.026c-1.149-11.024-0.214-23.982,2.702-37.507   c9.144-9.798,16.72-23.936,24.484-45.691c15.458-5.955,25.31-19.192,30.109-40.442c2.461-10.885-1.058-22.073-9.655-30.807   c0.773-13.206,0.095-13.928-0.402-14.456l-0.542-0.536H151.497v14.914c-9.897,9.115-13.61,19.503-11.038,30.885   c4.794,21.242,14.648,34.48,30.12,40.442c7.762,21.754,15.332,35.885,24.464,45.675c2.06,9.518,4.158,23.61,2.71,37.523   c-2.484,23.913-25.336,32.306-51.795,42.026c-36.32,13.338-77.484,28.462-77.484,88.641C68.474,485.634,126.653,512,256,512   c129.347,0,187.526-26.366,187.526-45.093C443.526,406.729,402.362,391.605,366.042,378.266z M233.908,484.578L203.021,359.12   l37.47,15.598l-2.302,20.66l6.572-0.148L233.908,484.578z M277.101,395.378l-2.302-20.66l37.47-15.598l-30.887,125.458   l-10.854-89.348L277.101,395.378z"/>
	<path class="st0" d="M91.083,82.779l54.864,24.13v36.397h222.66v-36.397l22.395-9.852v51.234c-4.75,0.753-8.389,4.728-8.389,9.495   c0,4.146,2.741,7.74,6.704,9.053l-6.378,40.217c-0.421,2.663,0.34,5.357,2.081,7.392c1.739,2.042,4.28,3.214,6.972,3.214h16.792   c2.692,0,5.233-1.172,6.968-3.214c1.745-2.034,2.506-4.728,2.085-7.392l-6.374-40.217c3.969-1.312,6.714-4.907,6.714-9.053   c0-4.767-3.643-8.742-8.397-9.495V88.804l13.686-6.017c2.696-1.172,4.439-3.789,4.439-6.654c0-2.85-1.739-5.458-4.433-6.646   L272.931,3.284C267.987,1.102,262.72,0,257.273,0c-5.446,0-10.712,1.102-15.652,3.284L91.081,69.487   c-2.692,1.188-4.431,3.796-4.431,6.646C86.649,79.006,88.392,81.614,91.083,82.779z"/>
</g>
</svg>